Coordinates
version=1
nRows=14
nColumns=42
inDegrees=yes

Units are S.I. units (second, meters, Newtons, ...)
If the header above contains a line with 'inDegrees', this indicates whether rotational values are in degrees (yes) or radians (no).

endheader
time	pelvis_tilt	pelvis_list	pelvis_rotation	pelvis_tx	pelvis_ty	pelvis_tz	hip_flexion_r	hip_adduction_r	hip_rotation_r	knee_angle_r	knee_adduction_r	knee_angle_r_beta	ankle_angle_r	subtalar_angle_r	mtp_angle_r	hip_flexion_l	hip_adduction_l	hip_rotation_l	knee_angle_l	knee_adduction_l	knee_angle_l_beta	ankle_angle_l	subtalar_angle_l	mtp_angle_l	lumbar_extension	lumbar_bending	lumbar_rotation	arm_flex_r	arm_add_r	arm_rot_r	elbow_flex_r	pro_sup_r	wrist_flex_r	wrist_dev_r	arm_flex_l	arm_add_l	arm_rot_l	elbow_flex_l	pro_sup_l	wrist_flex_l	wrist_dev_l
      0.00000000	     -0.74488382	      7.37072841	     89.57361533	      0.47068889	      0.95098884	     -0.63157802	     17.86977645	     -2.43274761	     -2.90281153	      0.87106869	      5.96791786	      0.01520302	      0.18084064	      0.14196201	    -15.14185983	    -25.24799649	      1.23560080	     -6.37277619	      9.47700731	      5.46256159	      0.16540498	     12.54965187	      3.82648494	    -19.56763297	    -20.31493123	      1.71737893	     -4.44177093	     -6.52853443	     -9.20376928	    -20.75557585	     28.09221348	     90.00000001	      0.00000000	      0.00000000	     10.62698248	    -21.51924149	     -0.38839022	     62.55210323	     90.00000001	      0.00000000	      0.00000000
      0.01000000	     -0.60828716	      7.52067756	     89.66258170	      0.47163853	      0.94890128	     -0.63186697	     17.80528458	     -2.18714179	     -3.24394942	      0.93027728	      5.96791786	      0.01623640	      1.25053293	      0.29369228	    -15.25836267	    -25.92804107	      0.89973201	     -6.68877212	     10.32719316	      5.46256159	      0.18024352	     12.63921971	      4.11427670	    -19.90543732	    -20.49190528	      1.90156328	     -4.43103529	     -6.59820390	     -9.29104163	    -20.88149026	     28.03681435	     90.00000001	      0.00000000	      0.00000000	     10.84633598	    -21.57788023	     -0.57708864	     62.83418422	     90.00000001	      0.00000000	      0.00000000
      0.02000000	     -0.12441897	      7.72481504	     89.71163974	      0.47270944	      0.94711321	     -0.63267540	     17.54979048	     -1.54103626	     -3.31570603	      1.31746966	      5.96791786	      0.02299418	      1.85853301	     -0.26789253	    -15.28219416	    -26.64178289	      0.15642189	     -7.22587442	     11.30032523	      5.46256159	      0.19722788	     12.59065812	      4.94104397	    -21.08543661	    -20.68518251	      2.46368150	     -4.38219869	     -6.52500877	     -9.38148378	    -21.03325911	     27.97804745	     90.00000001	      0.00000000	      0.00000000	     10.86902081	    -21.50140688	     -0.89112309	     63.04268924	     90.00000001	      0.00000000	      0.00000000
      0.03000000	      0.37266688	      7.86282097	     89.68051867	      0.47398783	      0.94529211	     -0.63389863	     17.46884067	     -0.78723140	     -2.80606743	      2.36354092	      5.96791786	      0.04125157	      1.78860923	     -1.96829489	    -15.29872533	    -27.20028315	     -0.58154948	     -7.98452356	     12.45650141	      5.46256159	      0.21740696	     12.30630787	      5.61506024	    -22.37549411	    -20.72772458	      3.02713351	     -4.22818902	     -6.49285982	     -9.50892436	    -21.22928730	     27.86145793	     90.00000001	      0.00000000	      0.00000000	     10.79576448	    -21.34047516	     -1.19825145	     63.14957692	     90.00000001	      0.00000000	      0.00000000
      0.04000000	      0.84423009	      8.15506143	     89.76572852	      0.47509525	      0.94376096	     -0.63529745	     17.41480987	     -0.06276496	     -2.76003255	      4.36735313	      5.96791786	      0.07622469	      1.64648969	     -3.18170012	    -15.25704129	    -27.93154172	     -1.28175771	     -8.20117922	     13.49751847	      5.46256159	      0.23557614	     11.94313833	      5.35466437	    -22.52146110	    -20.93570631	      3.59529526	     -4.12895574	     -6.45836193	     -9.65254455	    -21.22979008	     27.81363762	     90.00000001	      0.00000000	      0.00000000	     10.74827920	    -21.21230798	     -1.36316527	     63.16860465	     90.00000001	      0.00000000	      0.00000000
      0.05000000	      1.24206936	      7.98642353	     89.71436812	      0.47664891	      0.94150783	     -0.63715546	     18.01068796	      0.72184151	     -2.59327850	      6.91935084	      5.96791786	      0.12076545	      1.01839957	     -5.24001655	    -15.69030522	    -27.91768335	     -1.94272311	     -8.98062571	     15.14282568	      5.46256159	      0.26429217	     11.48539877	      5.77409771	    -24.29299771	    -20.54556307	      4.04529628	     -4.06022385	     -6.41625684	     -9.77993594	    -21.19402142	     27.76540336	     90.00000001	      0.00000000	      0.00000000	     10.33245264	    -21.05078020	     -1.81096992	     63.23423644	     90.00000001	      0.00000000	      0.00000000
      0.06000000	      1.77786661	      8.09806673	     89.95827962	      0.47776073	      0.93984447	     -0.63973035	     18.03569189	      1.54344162	     -2.94779669	      8.94004898	      5.96791786	      0.15603329	      0.03513128	     -7.39834381	    -16.12511365	    -28.24326746	     -2.86767932	     -9.61028257	     16.61638972	      5.46256159	      0.29001071	     10.70205485	      5.89502930	    -25.54672957	    -20.37317518	      4.74400246	     -4.20579938	     -6.44168994	     -9.93008131	    -20.99613410	     27.80379831	     90.00000001	      0.00000000	      0.00000000	      9.88061544	    -20.81944473	     -2.23380664	     63.20683750	     90.00000001	      0.00000000	      0.00000000
      0.07000000	      2.30249397	      8.38107289	     90.45994643	      0.47860254	      0.93870117	     -0.64243412	     17.69875276	      2.21184937	     -3.72986691	     10.32413087	      5.96791786	      0.18019008	     -1.45678591	     -9.08381464	    -16.69681049	    -28.59279894	     -3.92362264	     -9.96477624	     18.23233921	      5.46256159	      0.31821435	      9.59979405	      5.91125985	    -26.50791222	    -20.35124566	      5.50359869	     -4.57830802	     -6.40324304	    -10.03438681	    -20.78566649	     27.82584093	     90.00000001	      0.00000000	      0.00000000	      9.41636258	    -20.64028169	     -2.51294330	     63.06633229	     90.00000001	      0.00000000	      0.00000000
      0.08000000	      2.75773639	      8.76483922	     90.68496708	      0.47912547	      0.93783721	     -0.64527656	     17.31104848	      2.73775265	     -4.49502209	     11.84109114	      5.96791786	      0.20666603	     -2.92497122	     -9.35119253	    -16.80430328	    -28.98065530	     -4.70382455	    -10.33944887	     19.94483411	      5.46256159	      0.34810302	      8.33020706	      5.39035402	    -26.73931872	    -20.44080859	      6.18812028	     -4.63899333	     -6.34526242	    -10.28971492	    -20.75833940	     27.89138363	     90.00000001	      0.00000000	      0.00000000	      8.96890529	    -20.29312909	     -2.67359537	     62.77806341	     90.00000001	      0.00000000	      0.00000000
      0.09000000	      3.29797615	      8.93802977	     91.08269583	      0.47961751	      0.93699142	     -0.64817218	     17.01253469	      3.23550204	     -5.19793298	     13.21222956	      5.96791786	      0.23059691	     -4.47782693	     -8.81221668	    -17.30601786	    -28.79195038	     -5.72034326	    -10.66136081	     22.20362247	      5.46256159	      0.38752632	      6.75629314	      4.75183795	    -27.35528171	    -20.27718169	      7.01586751	     -4.87308594	     -6.26493477	    -10.46660911	    -20.64023194	     28.00802613	     90.00000001	      0.00000000	      0.00000000	      8.42598826	    -19.86192769	     -2.96675789	     62.35549042	     90.00000001	      0.00000000	      0.00000000
      0.10000000	      3.66124159	      8.83538368	     91.44819746	      0.48025041	      0.93599680	     -0.65096193	     17.13578143	      3.49526574	     -6.11143704	     14.87088006	      5.96791786	      0.25954582	     -5.92033815	     -8.66261555	    -19.34522016	    -28.02438617	     -6.51714233	    -10.73465738	     24.80291726	      5.46256159	      0.43289257	      4.78459503	      3.59700408	    -27.76068945	    -19.79172343	      7.60309392	     -5.24459253	     -6.11589056	    -10.71035808	    -19.94125362	     28.04416190	     90.00000001	      0.00000000	      0.00000000	      7.71390480	    -19.45646320	     -3.38958728	     61.90492786	     90.00000001	      0.00000000	      0.00000000
      0.11000000	      4.32429273	      8.84545418	     91.65284033	      0.48106286	      0.93540892	     -0.65333582	     17.05699685	      4.12207201	     -6.84809473	     16.42964800	      5.96791786	      0.28675145	     -6.83525565	     -9.63151694	    -19.21136680	    -27.05664491	     -7.60049721	    -11.05024166	     27.95925908	      5.46256159	      0.48798113	      2.64470580	      2.15535562	    -27.85652036	    -19.52529218	      8.49364984	     -5.19254575	     -5.99633544	    -10.94798096	    -19.77018533	     28.33976538	     90.00000001	      0.00000000	      0.00000000	      7.26925366	    -18.92108675	     -3.54464879	     61.23170375	     90.00000001	      0.00000000	      0.00000000
      0.12000000	      5.04427314	      9.32313227	     91.44447613	      0.48261708	      0.93573382	     -0.65532740	     16.49648817	      4.94441646	     -7.06494018	     18.13275598	      5.96791786	      0.31647629	     -7.06540109	    -10.33648885	    -19.11081908	    -26.61170169	     -8.59201946	    -11.64124940	     31.00166408	      5.46256159	      0.54108111	      0.01507885	      0.82595747	    -27.41786107	    -19.93054437	      9.27896429	     -4.71933175	     -5.61651456	    -11.16177648	    -19.66357205	     28.49833007	     90.00000001	      0.00000000	      0.00000000	      6.90371453	    -18.45559240	     -3.67456927	     60.68541386	     90.00000001	      0.00000000	      0.00000000
      0.13000000	      5.98848836	      8.60146730	     91.72960396	      0.48307605	      0.93466385	     -0.65715041	     17.35939583	      5.85152902	     -7.66797017	     20.11349869	      5.96791786	      0.35104678	     -6.45861544	    -10.18391571	    -18.83474790	    -24.06551837	     -9.89279835	    -11.33308906	     35.24622663	      5.46256159	      0.61516270	     -2.63828697	     -2.45435354	    -27.49608250	    -18.87844341	     10.54832700	     -4.62843360	     -5.54112642	    -11.54811888	    -19.28983587	     28.88688878	     90.00000001	      0.00000000	      0.00000000	      6.46882679	    -17.60991250	     -3.84013278	     59.58233435	     90.00000001	      0.00000000	      0.00000000
